<?xml version="1.0" encoding="UTF-8"?>
<svg version="1.1" viewBox="0 0 1000 83" xmlns="http://www.w3.org/2000/svg">
<g transform="translate(-.60606 .13609)">
<svg width="1e3" height="83" data-background-color="#ffffff" viewBox="0 0 396 33" xmlns="http://www.w3.org/2000/svg" xmlns:xlink="http://www.w3.org/1999/xlink">
<g transform="translate(.24 -.054109)">
<svg width="395.52" height="33.108" viewBox="0 0 395.52 33.10821716540792">
<svg width="395.52" height="33.108" viewBox="0 0 719.0417554972772 60.1896">
<svg width="719.04" height="60.19" viewBox="0 0 719.0417554972772 60.1896">
<svg width="719.04" height="60.19" viewBox="0 0 719.0417554972772 60.1896">
<svg width="719.04" height="60.19" viewBox="0 0 719.0417554972772 60.1896">
<svg/>
<svg>
<svg/>
</svg>
<svg width="719.04" height="60.19" viewBox="0 0 719.0417554972772 60.1896">
<g transform="translate(0 11.545)">
<svg width="362.2" height="36.95" data-palette-color="#454547" viewBox="1 -36.1 362.17 36.95">
<path class="undefined-lv-0" d="m2.7-1.4 1.15-0.05q1.05 0 1.75-1.75 0.45-1.15 0.55-3.65t0.1-14.85v-8.5q0-0.8-0.5-1.8-1-2.1-3.9-2.1-0.85 0-0.85-0.6 0-0.75 0.45-0.75l2 0.05 7.3-0.05 5.5-0.15q4.55 0 7.6 2.17 3.05 2.18 3.05 6.18 0 4.3-4.5 7.05-0.5 0.35-0.5 0.4 0 0.15 0.85 0.37 0.85 0.23 2.05 0.75 1.2 0.53 2.38 1.43 1.17 0.9 2.02 2.67 0.85 1.78 0.85 4.05 0 2.28-1.25 4.73t-3.2 3.8-3.85 1.87q-1.9 0.53-4.25 0.53t-5.65-0.27q-3.3-0.28-3.65-0.28l-4.3 0.2h-0.7q-1.05 0-1.05-0.73 0-0.72 0.55-0.72zm7.4-8.8v3.4l-0.05 2.2q0 3 4.9 3h1.15q2.7 0 4.68-0.33 1.97-0.32 3.5-2.37 1.52-2.05 1.52-4.7t-0.9-4.43q-0.9-1.77-2.05-2.67t-2.75-1.4q-2.2-0.7-4.1-0.7l-3.9-0.05-0.75-0.05q-0.45 0-0.65 0.12-0.2 0.13-0.4 0.98-0.2 1.05-0.2 7zm0.25-18.5v1.45q0 6.3 0.35 7 0.2 0.35 2.85 0.35h3.2q3.15 0 4.73-1.65 1.57-1.65 1.57-4.35t-2.62-5.33q-2.63-2.62-7.48-2.62-1.55 0-2.07 0.92-0.53 0.93-0.53 4.23zm26.95 17.15v-6.2l0.15-8.65q0-1.35-0.1-4.55-0.05-1.45-1.25-2.25t-2.8-0.85q-0.8 0-0.8-0.9 0-0.7 1.4-0.7l1.35 0.1 12.2 0.25 10-0.2q0.95 0 0.95 1.15 0 0.3-0.3 1.97-0.3 1.68-0.3 2.63 0 1.6-0.78 1.6-0.77 0-0.77-1.2t-0.85-2.3-2.1-1.15q-4.5-0.35-6.9-0.35h-1.3q-2.6 0-3 0.35-0.75 0.65-0.75 11.05 0 2.5 0.95 2.55h4.9q3 0 4-0.2 2.6-0.5 2.95-2.6 0.15-0.85 0.65-0.85t0.6 0.15 0.1 0.65l-0.4 5.25 0.15 3.05q0 1.25-0.35 1.25-0.75 0-1.1-1.2-0.7-2.1-1.25-2.45-1.05-0.7-3.65-0.7h-3.6l-1.6-0.05h-0.35q-2.05 0-2.05 0.95l-0.1 7.2v2q0 3.6 1.22 3.97 1.23 0.38 2.13 0.38 7.5 0 10.85-1.2 2.95-1.1 3.6-2.3 0.6-1.25 1.1-1.25 0.6 0 0.6 0.85 0 2.15-2.15 4.35t-3.75 2.2q-3.6 0-8.13-0.25-4.52-0.25-5.62-0.25l-6.8 0.45q-1.05 0-1.05-0.5v-0.6q0-0.3 0.5-0.4 0.55-0.05 1.7-0.6t1.52-2.3q0.38-1.75 0.38-7.35zm47.15-22.9 1.15-0.4q0.65 0 0.75 0.4 1.05 6.05 1.05 7.12 0 1.08-0.7 1.08-0.45 0-0.88-1.08-0.42-1.07-1-1.97-0.57-0.9-0.82-1.15t-1.3-1.2q-2.7-2.4-6.18-2.4-3.47 0-5.57 1.5t-2.1 3.9 1.22 3.85q1.23 1.45 3.28 2.25t4.3 1.5q6.05 1.9 8.95 4.95 2 2.15 2 5.35 0 5.25-3.35 8.32-3.35 3.08-8.3 3.08-3.45 0-5.55-0.37-2.1-0.38-4.3-1.53-0.65-0.4-1.55-3.9t-0.9-4.38q0-0.87 0.67-0.87 0.68 0 0.83 0.5 1.85 4.45 4.35 6.3 2.7 2.05 6.52 2.05 3.83 0 6.1-1.98 2.28-1.97 2.28-5.17 0-2.35-1.55-3.93-1.55-1.57-3.55-2.27-7.45-2.5-10.1-4.05-4.55-2.7-4.55-7.25t3.22-7.23q3.23-2.67 8.38-2.67 1.9 0 4.52 0.83 2.63 0.82 2.68 0.82zm10.24-1.45q0.65 0 4.08 0.2 3.42 0.2 13.47 0.2t12.15-0.3q0.55 0 0.75 0.3t0.2 0.55l0.3 4.05q0 1.25-0.15 1.57-0.15 0.33-0.65 0.33-0.4 0-0.67-1.03-0.28-1.02-0.58-1.57-0.75-1.3-4.35-1.3h-6.5q-1.2 0-1.47 0.47-0.28 0.48-0.28 2.73v2.45l-0.15 18.3-0.05 3.25q0 2.15 0.68 2.8 0.67 0.65 1.47 0.97 0.8 0.33 1.35 0.38 1.4 0.1 1.4 0.9 0 0.55-0.25 0.7t-0.95 0.15l-5.55-0.4-5.1 0.35q-1.85 0-1.85-0.8 0-0.5 0.3-0.68 0.3-0.17 1.18-0.3 0.87-0.12 1.12-0.17 1.7-0.4 1.9-2 0.5-4.4 0.5-18.9l-0.05-8.95q0-0.95-0.55-1.18-0.55-0.22-3.65-0.22t-4.87 0.2q-1.78 0.2-2.08 0.37-0.3 0.18-0.72 0.73-0.43 0.55-0.7 1.27-0.28 0.73-0.38 1.18-0.15 1.15-0.95 1.15-0.55 0-0.55-0.85 0-2 0.25-3.63 0.25-1.62 0.28-1.87 0.02-0.25 0.05-0.33 0.02-0.07 0.05-0.25 0.02-0.17 0.07-0.25 0.05-0.07 0.13-0.19 0.07-0.13 0.17-0.18t0.25-0.1q0.3-0.1 0.95-0.1zm48.4 24.35v-6.2l0.15-8.65q0-1.35-0.1-4.55-0.05-1.45-1.25-2.25t-2.8-0.85q-0.8 0-0.8-0.9 0-0.7 1.4-0.7l1.35 0.1 12.2 0.25 10-0.2q0.95 0 0.95 1.15 0 0.3-0.3 1.97-0.3 1.68-0.3 2.63 0 1.6-0.78 1.6-0.77 0-0.77-1.2t-0.85-2.3-2.1-1.15q-4.5-0.35-6.9-0.35h-1.3q-2.6 0-3 0.35-0.75 0.65-0.75 11.05 0 2.5 0.95 2.55h4.9q3 0 4-0.2 2.6-0.5 2.95-2.6 0.15-0.85 0.65-0.85t0.6 0.15 0.1 0.65l-0.4 5.25 0.15 3.05q0 1.25-0.35 1.25-0.75 0-1.1-1.2-0.7-2.1-1.25-2.45-1.05-0.7-3.65-0.7h-3.6l-1.6-0.05h-0.35q-2.05 0-2.05 0.95l-0.1 7.2v2q0 3.6 1.22 3.97 1.23 0.38 2.13 0.38 7.5 0 10.85-1.2 2.95-1.1 3.6-2.3 0.6-1.25 1.1-1.25 0.6 0 0.6 0.85 0 2.15-2.15 4.35t-3.75 2.2q-3.6 0-8.13-0.25-4.52-0.25-5.62-0.25l-6.8 0.45q-1.05 0-1.05-0.5v-0.6q0-0.3 0.5-0.4 0.55-0.05 1.7-0.6t1.52-2.3q0.38-1.75 0.38-7.35zm36.95 11.75-5.35-0.1-4.25 0.1q-1.1 0-1.1-0.8 0-0.45 0.65-0.58 0.65-0.12 1.6-0.77t1.35-2.13q0.4-1.47 0.85-9.62t0.45-11.85-1.2-5.83q-1.2-2.12-3.9-2.42-0.65-0.05-0.65-0.75 0-0.3 0.35-0.58 0.35-0.27 0.9-0.27l1.9 0.05 2.45-0.1q0.45 0 1.05 0.27 0.6 0.28 0.7 0.5 0.1 0.23 0.55 0.75 0.45 0.53 1.2 1.38t1.35 1.65q6.8 8.85 18.2 21.35 0.3 0.35 0.72 0.8 0.43 0.45 0.6 0.67 0.18 0.23 0.38 0.43 0.35 0.35 0.55 0.35 0.5 0 0.5-3.1v-5.85l-0.1-10.25v-0.35q0-4.6-1.6-5.85-0.6-0.45-1-0.57-0.4-0.13-1.15-0.28-2.05-0.4-2.05-1.13 0-0.72 0.95-0.72l4.75 0.05t4.5-0.1q0.85 0 1.17 0.18 0.33 0.17 0.33 0.52t-0.3 0.55q-0.4 0.25-1.45 0.6-1.65 0.9-1.65 5.65v1.9l-0.55 24.75v1q0 1.15-0.7 1.15-0.45 0-0.8-0.35-16.6-19.25-19.83-22.88-3.22-3.62-3.57-3.62-0.5 0-0.5 4.07 0 4.08-0.2 9.55-0.2 5.48-0.2 5.98 0 2.25 0.77 3.42 0.78 1.18 1.68 1.33t1.67 0.32q0.78 0.18 0.78 0.7 0 0.53-0.18 0.68-0.17 0.15-0.62 0.15zm55.69-18.7 5.55 0.25 4-0.05h0.75q0.8 0 0.8 0.45 0 0.35-1.27 0.9-1.28 0.55-1.43 1.4-0.35 2.15-0.35 4.62 0 2.48 0.05 3.63t0.08 1.62q0.02 0.48 0.07 0.83t0.05 0.55-0.37 0.32q-0.38 0.13-1.23 0.35-0.85 0.23-1.55 0.65-0.7 0.43-1.05 0.63t-0.92 0.5q-0.58 0.3-1.18 0.6t-1.35 0.62q-0.75 0.33-1.55 0.58t-1.65 0.45q-1.9 0.45-3.6 0.45-5.45 0-9.47-1.48-4.03-1.47-6.23-3.97-4.3-4.95-4.3-11.85 0-5.45 2.18-9.8 2.17-4.35 6.67-7.02 4.5-2.68 10.7-2.68 5.95 0 10.3 2.25 1 0.55 1.53 0.93 0.52 0.37 0.65 0.37 0.12 0 0.65-0.37 0.52-0.38 0.72-0.38 0.75 0 0.78 1.22 0.02 1.23 0.2 2.83 0.17 1.6 0.32 2.65t0.15 1.25q0 0.85-0.6 0.85t-0.85-0.6q-1.75-3.8-5.85-6.43-4.1-2.62-8.45-2.62-6.25 0-10.32 3.92-4.08 3.93-4.08 10.88 0 4.6 1.7 8.65t5.18 6.7q3.47 2.65 7.65 2.65 4.17 0 7.3-1.75 3.12-1.75 3.47-4 0.15-1.2 0.15-6.3 0-1.95-0.72-2.68-0.73-0.72-2.28-0.89-1.55-0.18-1.72-0.5-0.18-0.33-0.18-0.63 0-0.55 0.9-0.55zm18.3 6.95v-6.2l0.15-8.65q0-1.35-0.1-4.55-0.05-1.45-1.25-2.25t-2.25-0.82q-1.05-0.03-1.17-0.21-0.13-0.17-0.13-0.52 0-0.9 1.35-0.9l1.35 0.1 4.35 0.2 5.25-0.2q0.85 0 0.85 0.5 0 0.7-0.6 0.92-0.6 0.23-1.32 0.3-0.73 0.08-1.4 1.1-0.68 1.03-0.78 3.03t-0.25 10.95-0.15 10v2q0 3.6 1.23 3.97 1.22 0.38 2.12 0.38 7.5 0 10.8-1.2 3-1.1 3.6-2.3 0.65-1.25 1.15-1.25 0.6 0 0.6 0.85 0 2.15-2.15 4.35t-3.75 2.2q-3.6 0-8.12-0.25-4.53-0.25-5.63-0.25l-6.25 0.4q-1.45 0-1.45-0.6 0-0.35 0.28-0.58 0.27-0.22 0.77-0.22t1.3-0.6 1.2-2.48q0.4-1.87 0.4-7.22zm30.35-5.7v-2.85l0.05-5.4v-2.3q0-2.2-0.18-3.53-0.17-1.32-1.35-1.97-1.17-0.65-2.32-0.7t-1.15-0.77q0-0.73 1.4-0.73l5.65 0.2 4.4-0.1q1.35 0 1.35 0.7 0 0.4-2.3 1.35-1.6 0.65-1.6 5.75l-0.15 18.5q0 4.2 1.17 5.9 1.18 1.7 2.48 1.7l1 0.05q0.35 0 0.7 0.17 0.35 0.18 0.35 0.58 0 0.7-1.25 0.7l-4.75-0.2-5.5 0.25q-2.25 0-2.25-0.75 0-0.7 1.55-0.9 0.6-0.05 1.25-0.63 0.65-0.57 0.82-1.3 0.18-0.72 0.4-6.05 0.23-5.32 0.23-7.67zm33.19-17.2 1.15-0.4q0.66 0 0.75 0.4 1.05 6.05 1.05 7.12 0 1.08-0.7 1.08-0.44 0-0.87-1.08-0.43-1.07-1-1.97t-0.82-1.15-1.31-1.2q-2.69-2.4-6.17-2.4-3.47 0-5.58 1.5-2.1 1.5-2.1 3.9t1.23 3.85 3.27 2.25q2.05 0.8 4.3 1.5 6.05 1.9 8.95 4.95 2 2.15 2 5.35 0 5.25-3.34 8.32-3.36 3.08-8.31 3.08-3.44 0-5.55-0.37-2.09-0.38-4.3-1.53-0.65-0.4-1.54-3.9-0.91-3.5-0.91-4.38 0-0.87 0.68-0.87t0.82 0.5q1.86 4.45 4.36 6.3 2.69 2.05 6.52 2.05 3.82 0 6.1-1.98 2.27-1.97 2.27-5.17 0-2.35-1.55-3.93-1.54-1.57-3.54-2.27-7.46-2.5-10.11-4.05-4.55-2.7-4.55-7.25t3.23-7.23q3.22-2.67 8.38-2.67 1.89 0 4.52 0.83 2.62 0.82 2.67 0.82zm13.1 17.2v-2.85l0.05-5.4q0-3.8-0.3-5.95-0.15-1.25-1.32-1.95-1.18-0.7-2.05-0.7-0.88 0-1.15-0.33-0.28-0.32-0.28-0.52 0-0.55 1.4-0.55l5.65 0.2 4.4-0.1q1.1 0 1.1 0.7 0 0.85-1.75 0.85-1 0-1.45 2.05t-0.45 4.2v1.85l-0.1 4.6q0 1.25 0.3 1.6t1.4 0.35l8.2-0.05t9.45 0.1q0.55 0 0.55-6.95v-2.7q0-3.75-1.5-4.6-0.6-0.35-1.22-0.45-0.63-0.1-1.05-0.28-0.43-0.17-0.43-0.67t1.95-0.5l4.85 0.1 3.9-0.1q1.15 0 1.15 0.65t-0.7 0.65q-1.4 0-2.12 0.85-0.73 0.85-0.73 2.25l-0.25 19.65v1.85l0.2 4.6q0 3.25 4.2 3.7 0.6 0 0.6 0.55 0 0.35-0.5 0.45t-1.95 0.1l-3.85-0.25-4.7 0.25h-0.85q-0.7 0-0.82-0.2-0.13-0.2-0.13-0.48 0-0.27 0.5-0.52t1.1-0.4 1.15-0.6q1.05-0.75 1.05-4.7l0.15-8.85q0-0.75-0.6-1.05t-1.95-0.3-4.05 0.1l-2.7 0.05-9.2-0.15q-0.75 0-1 0.3t-0.25 1.55l-0.2 6.15v2.15q0 2.15 0.4 3.2t1.95 2.05q0.4 0.25 1.45 0.25 1.65 0 1.65 0.55 0 0.9-1.6 0.9l-4.15-0.2-5.4 0.25q-2.35 0-2.35-0.75 0-0.7 1.55-0.9 0.6-0.05 1.25-0.63 0.65-0.57 0.85-1.55 0.2-0.97 0.45-5.27t0.25-8.2z" fill="#454547"/>
</svg>
</g>
<svg class="icon-z$-0" x="376.41" width="62.171" height="60.19" enable-background="new 0 0 100 100" data-fill-palette-color="accent" version="1.1" viewBox="2.1999999999999993 3.6499084270585764 95.7 92.65009157294142" xml:space="preserve" xmlns="http://www.w3.org/2000/svg" xmlns:xlink="http://www.w3.org/1999/xlink"><path d="m5.2 96.3h92.7v-12.8h-10.5l2-24.6 2.2-2.6c1.1-1.3 1.7-2.9 1.7-4.5l0.1-11v-3c0-0.6-0.3-1.2-0.8-1.6-2.7-2.2-5.6-3.7-6.1-4-0.1 0-0.1-0.1-0.1-0.2v-1.8c0.3-0.6 0.4-1.1 0.5-1.7 0.1 0 0.1 0.1 0.2 0.1 0.2 0 0.6-0.3 0.9-1.5 0.4-1.3 0.1-1.7-0.2-1.8 1-4.8-1.3-5-1.3-5s-0.3-0.7-1.2-1.2c-0.5-0.3-1.2-0.6-2.1-0.6h-0.4c-0.4 0-0.7 0.1-1 0.2-0.4 0.1-0.8 0.3-1.1 0.6-0.4 0.3-0.8 0.6-1.2 1-0.6 0.6-1 1.3-1.3 2.2-0.2 0.8-0.2 1.6 0.1 2.5h-0.1c-0.4 0-0.8 0.3-0.4 1.8 0.3 1.2 0.6 1.5 0.9 1.5 0.1 0.7 0.3 1.4 0.7 2.1v1.5c0 0.1 0 0.1-0.1 0.2-0.6 0.3-3.5 1.7-6.2 3.9-0.5 0.4-0.8 1-0.8 1.6v3l-0.1 11.1c0 1.6 0.6 3.2 1.6 4.5l2.2 2.6 1.8 24.6h-6.3v-7.6h-16.2l2.1-27.5 2.4-2.9c1.2-1.4 1.8-3.2 1.8-5v-15.5c0-0.7-0.3-1.4-0.8-1.8-3-2.4-6.2-4.1-6.8-4.4-0.1 0-0.1-0.1-0.1-0.2v-1.9c0.3-0.6 0.5-1.3 0.6-1.9 0.3 0.2 0.7 0.1 1.2-1.6 0.4-1.4 0.2-1.9-0.2-2h-0.1c0-0.2 0.1-0.3 0.1-0.3 1.3-5.4-1.7-5.2-1.7-5.2-0.2-1.1-1.8-2.2-3.2-1.9s-4.4 0-4.4 0c0 0.6 0.5 1.1 0.5 1.1-3 1.8-1.8 6.1-1.8 6.1-0.5 0-1 0.2-0.5 2 0.4 1.3 0.7 1.7 1 1.7 0.1 0.7 0.4 1.6 0.8 2.3v1.7c0 0.1 0 0.1-0.1 0.2-0.6 0.3-3.8 1.9-6.8 4.4-0.5 0.4-0.8 1.1-0.8 1.8v15.6c0 1.8 0.6 3.6 1.8 5l2.5 2.9 2.1 27.5h-16.5v7.3h-6.7l2-24.2 2.2-2.6c1.1-1.3 1.7-2.9 1.7-4.5l0.1-11v-3c0-0.6-0.3-1.2-0.8-1.6-2.7-2.2-5.6-3.7-6.1-4-0.1 0-0.1-0.1-0.1-0.2v-1.8c0.3-0.6 0.4-1.1 0.5-1.7 0.1 0 0.1 0.1 0.2 0.1 0.2 0 0.6-0.3 0.9-1.5 0.4-1.3 0.1-1.7-0.2-1.8 1-4.8-1.3-5-1.3-5s-0.3-0.7-1.2-1.2c-0.5-0.3-1.2-0.6-2.1-0.6h-0.4c-0.4 0-0.7 0.1-1 0.2-0.4 0.1-0.8 0.3-1.1 0.6-0.4 0.3-0.8 0.6-1.2 1-0.6 0.6-1 1.3-1.3 2.2-0.2 0.8-0.2 1.6 0.1 2.5h-0.1c-0.4 0-0.8 0.3-0.4 1.8 0.3 1.2 0.6 1.5 0.9 1.5 0.1 0.7 0.3 1.4 0.7 2.1v1.5c0 0.1 0 0.1-0.1 0.2-0.6 0.3-3.5 1.7-6.2 3.9-0.5 0.4-0.8 1-0.8 1.6v3 10.9c0 1.6 0.6 3.2 1.6 4.5l2.2 2.6 1.8 24.3h-10v13.1l3 0.1zm77.7-62.6c0.4 0 2.7 0.2 0.5 3.2l1 9.1-1.6 1.8-1.6-1.8 1.1-9.1c-2.1-3.1 0.2-3.2 0.6-3.2zm-32.8-13.1c0.5 0 3 0.2 0.6 3.5l1.2 10.1-1.8 2-1.8-2 1.1-10.2c-2.4-3.3 0.2-3.4 0.7-3.4zm-32.9 13.1c0.4 0 2.7 0.2 0.5 3.2l1 9.1-1.6 1.8-1.6-1.8 1.1-9.1c-2.1-3.1 0.2-3.2 0.6-3.2z" fill="#111" data-fill-palette-color="accent"/></svg>
<g transform="translate(452.79 11.445)">
<svg width="266.25" height="37.2" data-palette-color="#454547" viewBox="1 -36.2 266.24 37.2">
<path class="undefined-lv-1" d="m10.9 0.05-4.15-0.05-4.3 0.2q-1.45 0-1.45-0.6 0-0.7 0.75-0.95 1.6-0.6 2.8-2.68 1.2-2.07 6.03-12.54 4.82-10.48 8.57-18.48 0.35-0.75 0.63-0.95 0.27-0.2 0.8-0.2 0.52 0 0.67 0.2t0.55 1.35 0.63 1.75q0.22 0.6 0.72 1.95t1.6 4.05 5.03 11.82q3.92 9.13 4.52 10.35 0.6 1.23 1.65 2.1 1.05 0.88 1.82 0.95 0.78 0.08 1.31 0.25 0.52 0.18 0.52 0.78 0 0.75-1.35 0.75l-4.5-0.3-4.65 0.2q-1.55 0-1.97-0.13-0.43-0.12-0.43-0.52t0.4-0.63q0.4-0.22 0.85-0.3 0.45-0.07 0.85-0.44 0.4-0.38 0.4-1.26 0-0.87-1.25-4.27t-2.1-5q-0.45-0.85-2.05-0.85l-6.05 0.1h-2.65q-2.25 0-2.82 0.25-0.58 0.25-0.95 1.05-0.38 0.8-1.08 2.22-0.7 1.43-0.95 1.98t-0.6 1.4q-0.65 1.5-0.65 2.5t0.58 1.6q0.57 0.6 1.27 0.7 1.85 0.15 1.85 0.95 0 0.35-0.15 0.52-0.15 0.18-0.7 0.18zm7.9-28.55q-0.45 0-2.85 5.52-2.4 5.53-2.4 6.13t0.45 0.75 2.1 0.15h1.55l4.75-0.05q1.95 0 1.95-0.73 0-0.72-2.45-6.25-2.45-5.52-3.1-5.52zm21.55 12.25q0-5.4 2.1-9.75t6.47-7.02q4.38-2.68 10.38-2.68 3.05 0 6.15 0.9t4.95 1.8l1.85 0.95q0.15 0 0.5-0.25t0.57-0.25q0.23 0 0.48 0.2t0.27 1.12q0.03 0.93 0.2 2.55 0.18 1.63 0.33 2.68t0.15 1.25q0 0.9-0.6 0.9-0.45 0-0.85-0.7-4.85-9.1-14-9.1-6.25 0-10.25 4t-4 10.45q0 7.2 3.7 12.3 1.9 2.6 5.2 4.1t7.7 1.5q7.2 0 12.1-7.5 0.2-0.35 0.75-0.35 0.45 0 0.45 0.62 0 0.63-0.18 1.55-0.17 0.93-0.42 2.05-0.25 1.13-0.3 1.38-0.1 0.55-0.8 0.9-2.7 1.3-4.2 1.95-4 1.7-8.53 1.7-4.52 0-8.02-1.05t-5.73-2.75q-2.22-1.7-3.72-4-2.7-4.05-2.7-9.45zm46.85 16.3-4.15-0.05-4.3 0.2q-1.45 0-1.45-0.6 0-0.7 0.75-0.95 1.59-0.6 2.79-2.68 1.21-2.07 6.03-12.54 4.83-10.48 8.58-18.48 0.35-0.75 0.62-0.95t0.8-0.2 0.68 0.2 0.54 1.35q0.41 1.15 0.63 1.75 0.23 0.6 0.73 1.95t1.6 4.05 5.02 11.82q3.93 9.13 4.52 10.35 0.6 1.23 1.66 2.1 1.05 0.88 1.82 0.95 0.77 0.08 1.3 0.25 0.53 0.18 0.53 0.78 0 0.75-1.35 0.75l-4.5-0.3-4.65 0.2q-1.56 0-1.98-0.13-0.42-0.12-0.42-0.52t0.4-0.63q0.4-0.22 0.85-0.3 0.45-0.07 0.84-0.44 0.41-0.38 0.41-1.26 0-0.87-1.25-4.27t-2.1-5q-0.45-0.85-2.06-0.85l-6.04 0.1h-2.65q-2.25 0-2.83 0.25-0.57 0.25-0.95 1.05-0.37 0.8-1.07 2.22-0.71 1.43-0.96 1.98t-0.59 1.4q-0.66 1.5-0.66 2.5t0.58 1.6 1.28 0.7q1.85 0.15 1.85 0.95 0 0.35-0.15 0.52-0.15 0.18-0.7 0.18zm7.89-28.55q-0.44 0-2.84 5.52-2.41 5.53-2.41 6.13t0.46 0.75q0.45 0.15 2.1 0.15h1.55l4.75-0.05q1.95 0 1.95-0.73 0-0.72-2.45-6.25-2.45-5.52-3.11-5.52zm27.5 10.05-0.05-12.7q0-0.85-0.82-1.73-0.83-0.87-1.68-0.92t-1.17-0.1q-0.33-0.05-0.65-0.33-0.33-0.27-0.33-0.75 0-0.47 0.43-0.54 0.42-0.08 2.12-0.08h4.35l9.75-0.2q7.25 0 13.25 4.1 2.9 1.95 4.7 5.12 1.8 3.18 1.8 6.88t-0.47 6.27q-0.48 2.58-1.58 4.46-1.1 1.87-2.2 3.04-1.1 1.18-2.8 2.58t-4.55 2.45-5.85 1.05l-12-0.25q-1.75 0-3.25 0.13-1.5 0.12-1.75 0.12-1.2 0-1.2-0.65 0-0.4 0.18-0.57 0.17-0.18 0.75-0.33 0.57-0.15 0.82-0.25 0.8-0.35 1.48-1.33 0.67-0.97 0.67-1.92 0 0 0.05-13.55zm4.3-8.85-0.1 9.6-0.05 10.65q0 2.35 0.5 3.35 0.25 0.45 0.95 0.65t1.6 0.45 2.08 0.58q1.17 0.32 3.07 0.32h1q3.4 0 5.8-0.98 2.4-0.97 4.6-3.07 3.7-3.55 3.7-11.5 0-4-1.57-7.25-1.58-3.25-4.13-5.2-5.25-3.95-11.45-3.95h-2q-2.4 0-3.2 0.85-0.4 0.4-0.47 0.7-0.08 0.3-0.2 1.17-0.13 0.88-0.13 1.53v2.1zm35.4 15.75v-6.2l0.15-8.65q0-1.35-0.1-4.55-0.05-1.45-1.25-2.25t-2.8-0.85q-0.8 0-0.8-0.9 0-0.7 1.4-0.7l1.35 0.1 12.2 0.25 10-0.2q0.95 0 0.95 1.15 0 0.3-0.3 1.97-0.3 1.68-0.3 2.63 0 1.6-0.77 1.6-0.78 0-0.78-1.2t-0.85-2.3-2.1-1.15q-4.5-0.35-6.9-0.35h-1.3q-2.6 0-3 0.35-0.75 0.65-0.75 11.05 0 2.5 0.95 2.55h4.9q3 0 4-0.2 2.6-0.5 2.95-2.6 0.15-0.85 0.65-0.85t0.6 0.15 0.1 0.65l-0.4 5.25 0.15 3.05q0 1.25-0.35 1.25-0.75 0-1.1-1.2-0.7-2.1-1.25-2.45-1.05-0.7-3.65-0.7h-3.6l-1.6-0.05h-0.35q-2.05 0-2.05 0.95l-0.1 7.2v2q0 3.6 1.23 3.97 1.22 0.38 2.12 0.38 7.5 0 10.85-1.2 2.95-1.1 3.6-2.3 0.6-1.25 1.1-1.25 0.6 0 0.6 0.85 0 2.15-2.15 4.35t-3.75 2.2q-3.6 0-8.12-0.25-4.53-0.25-5.63-0.25l-6.8 0.45q-1.05 0-1.05-0.5v-0.6q0-0.3 0.5-0.4 0.55-0.05 1.7-0.6t1.53-2.3q0.37-1.75 0.37-7.35zm31.65 11.5-4.1 0.15q-1.05 0-1.05-0.8 0-0.65 1.5-0.7 0.55-0.05 1.25-0.83 0.7-0.77 1-2.07t0.65-8.9 0.35-11.93q0-4.32-0.98-6.22-0.97-1.9-4.22-2.65-0.65-0.15-0.65-0.75 0-0.75 0.9-0.75l2.65 0.2 3.75-0.1q0.95 0 1.2 0.7 0.6 1.3 2.15 4.67 1.55 3.38 2.47 5.38 0.93 2 2.38 5.1t2.35 5.02q0.9 1.93 1.87 3.88 0.98 1.95 1.5 2.87 0.53 0.93 0.68 0.93t0.32-0.18q0.18-0.17 0.35-0.47 0.18-0.3 0.3-0.6 0.13-0.3 0.35-0.78 0.23-0.47 0.33-0.72l6.45-13.3q2.65-5.4 3.55-7.55l1.15-2.5q0.15-0.4 0.22-0.63 0.08-0.22 0.13-0.35 0.05-0.12 0.1-0.22t0.17-0.45q0.13-0.35 0.28-0.5 0.4-0.4 1.45-0.4l4.3 0.1q0.85 0 0.85 0.65 0 0.5-0.33 0.73-0.32 0.22-1.45 0.37-1.12 0.15-1.62 1.25t-0.5 6.02q0 4.93 0.3 10.4 0.3 5.48 0.3 6.88 0 5 0.8 6.37 0.8 1.38 3.35 1.38 0.35 0 0.62 0.25 0.28 0.25 0.28 0.45 0 0.8-0.55 0.8h-0.55l-5.1-0.2t-5.2 0.25q-0.9 0-0.9-0.7 0-0.75 1.35-0.9 0.5-0.05 1.07-0.62 0.58-0.58 0.8-1.66 0.23-1.07 0.23-2.97t-0.08-4.15q-0.07-2.25-0.17-4.38-0.1-2.12-0.2-4-0.1-1.87-0.15-3.07l-0.1-1.2q0-2.15-0.45-2.15-0.15 0-0.28 0.15-0.12 0.15-0.22 0.25t-0.2 0.32q-0.1 0.23-0.2 0.38t-0.25 0.42q-0.15 0.28-0.25 0.48l-0.25 0.55q-0.2 0.35-0.3 0.6l-6.95 14.05q-1.2 2.45-2.33 4.8-1.12 2.35-1.32 2.67-0.2 0.33-0.58 0.33-0.37 0-0.67-0.43-0.3-0.42-0.9-1.87t-1.05-2.4q-9.15-18.6-9.35-18.88-0.2-0.27-0.35-0.27-0.4 0-0.4 2l-0.45 13.2v2.25q0 4.1 1.65 5.05 0.85 0.5 1.65 0.55 1.25 0.15 1.25 0.67 0 0.53-0.15 0.7-0.15 0.18-0.6 0.18l-5.2-0.2zm55-4.4 0.09-10.15q0-2.1-1.3-4.1-1.2-1.9-3.15-4.75t-3.45-5.13q-1.5-2.27-2.75-3.5-1.25-1.22-1.92-1.44-0.68-0.23-1.75-0.23-1.08 0-1.08-0.6t0.58-0.75q0.57-0.15 2.52-0.15l2.9 0.1 4.25-0.05q2.5 0 2.5 0.57 0 0.58-1.05 0.95-1.05 0.38-1.05 0.85 0 0.48 0.33 1.28t0.65 1.3 0.97 1.45 1.55 2.4q0.91 1.45 2.73 3.9t2.1 2.45q0.27 0 0.72-0.58 0.45-0.57 1.25-1.92t1.15-1.88q0.35-0.52 0.93-1.37t0.8-1.2q0.23-0.35 0.67-1.08 0.45-0.72 0.65-1.1 0.21-0.37 0.46-0.92 0.5-0.9 0.5-1.5 0-1.8-2.3-2.1-1.11-0.15-1.25-0.43-0.16-0.27-0.16-0.52 0-0.6 1.41-0.6l2.05 0.05 5.29 0.05q2.46 0 2.46 0.75 0 0.2-0.3 0.35-0.31 0.15-0.86 0.4t-1 0.6q-2.05 1.6-6.02 7.6-3.98 6-4.65 6.85-0.68 0.85-0.88 2.05t-0.2 4.1l0.05 5.8v1.2q0 1.65 0.58 2.6 0.57 0.95 1.07 1.12 0.5 0.18 1 0.18l1 0.05q0.35 0 0.55 0.22 0.2 0.23 0.2 0.6 0 0.38-0.25 0.53t-0.95 0.15l-5-0.05-5.5 0.2q-1.39 0-1.39-0.5t0.27-0.68q0.27-0.17 0.92-0.22t0.95-0.15q2.11-0.65 2.11-3.05z" fill="#454547"/>
</svg>
</g>
</svg>
</svg>
</svg>
</svg>
</svg>
</svg>
<rect width="395.52" height="33.108" fill="none" visibility="hidden"/>
</g>
</svg>
</g>
</svg>
